<?xml version="1.0" encoding="utf-8"?>
<!-- Svg Vector Icons : http://www.onlinewebfonts.com/icon -->
<!DOCTYPE svg PUBLIC "-//W3C//DTD SVG 1.1//EN" "http://www.w3.org/Graphics/SVG/1.1/DTD/svg11.dtd">
<svg version="1.1" xmlns="http://www.w3.org/2000/svg" xmlns:xlink="http://www.w3.org/1999/xlink" x="0px" y="0px" viewBox="0 0 1000 1000" enable-background="new 0 0 1000 1000" xml:space="preserve">
<metadata> Svg Vector Icons : http://www.onlinewebfonts.com/icon </metadata>
<g><path d="M40.6,10v980V10z"/><path d="M71.3,10v980V10z"/><path d="M101.9,10v980V10z"/><path d="M132.5,10v980V10z"/><path d="M163.1,10v980V10z"/><path d="M193.8,10v980V10z"/><path d="M224.4,10v980V10z"/><path d="M255,10v980V10z"/><path d="M285.6,10v980V10z"/><path d="M316.3,10v980V10z"/><path d="M346.9,10v980V10z"/><path d="M377.5,10v980V10z"/><path d="M408.1,10v980V10z"/><path d="M438.8,10v980V10z"/><path d="M469.4,10v980V10z"/><path d="M500,10v980V10z"/><path d="M530.6,10v980V10z"/><path d="M561.3,10v980V10z"/><path d="M591.9,10v980V10z"/><path d="M622.5,10v980V10z"/><path d="M653.1,10v980V10z"/><path d="M683.8,10v980V10z"/><path d="M714.4,10v980V10z"/><path d="M745,10v980V10z"/><path d="M775.6,10v980V10z"/><path d="M806.3,10v980V10z"/><path d="M836.9,10v980V10z"/><path d="M867.5,10v980V10z"/><path d="M898.1,10v980V10z"/><path d="M928.8,10v980V10z"/><path d="M959.4,10v980V10z"/><path d="M10,40.6h980H10z"/><path d="M10,71.2h980H10z"/><path d="M10,101.9h980H10z"/><path d="M10,132.5h980H10z"/><path d="M10,163.1h980H10z"/><path d="M10,193.7h980H10z"/><path d="M10,224.4h980H10z"/><path d="M10,255h980H10z"/><path d="M10,285.6h980H10z"/><path d="M10,316.2h980H10z"/><path d="M10,346.9h980H10z"/><path d="M10,377.5h980H10z"/><path d="M10,408.1h980H10z"/><path d="M10,438.7h980H10z"/><path d="M10,469.4h980H10z"/><path d="M10,500h980H10z"/><path d="M10,530.6h980H10z"/><path d="M10,561.2h980H10z"/><path d="M10,591.9h980H10z"/><path d="M10,622.5h980H10z"/><path d="M10,653.1h980H10z"/><path d="M10,683.7h980H10z"/><path d="M10,714.4h980H10z"/><path d="M10,745h980H10z"/><path d="M10,775.6h980H10z"/><path d="M10,806.2h980H10z"/><path d="M10,836.9h980H10z"/><path d="M10,867.5h980H10z"/><path d="M10,898.1h980H10z"/><path d="M10,928.7h980H10z"/><path d="M10,959.4h980H10z"/><path d="M193.8,563.4v424.4c10,1.4,20.2,2.2,30.6,2.2H255V561.2h-30.6C214,561.2,203.8,562,193.8,563.4z M745,561.2V990h30.6c10.4,0,20.6-0.8,30.6-2.2V563.4c-10-1.4-20.2-2.2-30.6-2.2H745L745,561.2z M990,500c0-270.6-219.4-490-490-490C229.4,10,10,229.4,10,500c0,58.8,10.4,115.1,29.3,167.4C20.7,699.1,10,736.1,10,775.6c0,85.5,50.1,159.3,122.5,193.7V581.9C113.2,591,95.6,603,80,617.2c-5.7-28-8.7-56.9-8.7-86.6c0-236.8,192-428.8,428.8-428.8c236.8,0,428.8,192,428.8,428.8c0,29.7-3,58.6-8.8,86.6c-15.6-14.2-33.2-26.2-52.5-35.3v387.5C939.9,934.9,990,861.1,990,775.6c0-39.5-10.7-76.5-29.3-108.3C979.6,615.1,990,558.8,990,500L990,500z"/></g>
</svg>