<?xml version="1.0" encoding="utf-8"?>
<!-- Svg Vector Icons : http://www.onlinewebfonts.com/icon -->
<!DOCTYPE svg PUBLIC "-//W3C//DTD SVG 1.1//EN" "http://www.w3.org/Graphics/SVG/1.1/DTD/svg11.dtd">
<svg version="1.1" xmlns="http://www.w3.org/2000/svg" xmlns:xlink="http://www.w3.org/1999/xlink" x="0px" y="0px" viewBox="0 0 1000 1000" enable-background="new 0 0 1000 1000" xml:space="preserve">
<metadata> Svg Vector Icons : http://www.onlinewebfonts.com/icon </metadata>
<g><path d="M855.7,221.4c0-14.8-5.7-27.5-17.2-38.3C827,172.4,813.4,167,797.6,167s-29.4,5.4-40.8,16.1c-11.5,10.7-17.2,23.5-17.2,38.3c0,14.8,5.7,27.5,17.2,38.3c11.5,10.7,25.1,16.1,40.8,16.1s29.4-5.4,40.8-16.1S855.7,236.2,855.7,221.4z M990,59.2c0,93.4-15.4,174.3-46.2,242.8c-30.8,68.5-81.3,136-151.5,202.5C760,534.1,721,567,675.1,603.3l-11.8,212.6c-0.7,6-3.9,11.1-9.7,15.1l-230,125.9c-2.9,1.3-6.1,2-9.7,2c-5,0-9.7-1.7-14-5l-38.7-36.3c-5-4.7-6.4-10.4-4.3-17.1l50.5-156.2L239.9,587.2L73.3,634.5c-0.7,0.7-2.5,1-5.4,1c-5,0-9.3-1.7-12.9-5l-38.7-36.3c-7.2-7.4-8.2-14.8-3.2-22.2l134.3-215.6c4.3-5.4,9.7-8.4,16.1-9.1l226.8-11.1c38.7-43,73.8-79.6,105.3-109.8c75.2-69.9,146.9-118.2,214.9-145.1c68.1-26.9,154.4-40.3,259-40.3c5,0,9.7,2,14,6C987.8,51.1,990,55.2,990,59.2L990,59.2z"/></g>
</svg>