<?xml version="1.0" encoding="utf-8"?>
<!-- Generator: Adobe Illustrator 19.0.0, SVG Export Plug-In . SVG Version: 6.00 Build 0)  -->
<svg version="1.1" id="Layer_1" xmlns="http://www.w3.org/2000/svg" xmlns:xlink="http://www.w3.org/1999/xlink" x="0px" y="0px"
	 viewBox="0 0 512 512" style="enable-background:new 0 0 512 512;" xml:space="preserve">
<g id="XMLID_2_">
	<path id="XMLID_8_" d="M169.7,388.9c0-10.3-3.7-19.6-11.2-27c-7.5-7.5-16.8-11.2-27-11.2c-10.3,0-19.6,3.7-27,11.2
		c-7.5,7.5-11.2,16.8-11.2,27c0,10.3,3.7,19.6,11.2,27c7.5,7.5,16.8,11.2,27,11.2s19.6-3.7,27-11.2
		C166,407.5,169.7,399.2,169.7,388.9z M56,236.9h113.8v-75.5h-46.6c-2.8,0-4.7,0.9-6.5,2.8L58.8,222c-1.9,1.9-2.8,3.7-2.8,6.5
		C56,228.5,56,236.9,56,236.9z M436.5,388.9c0-10.3-3.7-19.6-11.2-27c-7.5-7.5-16.8-11.2-27-11.2s-19.6,3.7-27,11.2
		c-7.5,7.5-11.2,16.8-11.2,27c0,10.3,3.7,19.6,11.2,27c7.5,7.5,16.8,11.2,27,11.2s19.6-3.7,27-11.2
		C431.8,407.5,436.5,399.2,436.5,388.9z M512,65.3v304c0,2.8,0,5.6-0.9,7.5s-1.9,3.7-3.7,5.6c-1.9,0.9-3.7,2.8-4.7,3.7
		c-0.9,0.9-3.7,1.9-6.5,1.9c-3.7,0-5.6,0.9-6.5,0.9s-3.7,0-7.5,0s-6.5,0-6.5,0c0,20.5-7.5,39.2-22.4,54.1
		c-14.9,14.9-32.6,22.4-54.1,22.4s-39.2-7.5-54.1-22.4s-22.4-32.6-22.4-54.1H208c0,20.5-7.5,39.2-22.4,54.1
		c-14.9,14.9-32.6,22.4-54.1,22.4c-20.5,0-39.2-7.5-54.1-22.4C62.5,428.1,55,410.3,55,388.9H36.4c-0.9,0-2.8,0-6.5,0
		c-3.7,0-6.5,0-7.5,0c-0.9,0-3.7,0-6.5-0.9c-3.7,0-5.6-0.9-6.5-1.9c-0.9-0.9-2.8-1.9-4.7-3.7c-1.9-1.9-2.8-2.8-3.7-5.6
		C0,374.9,0,372.1,0,369.3c0-5.6,1.9-9.3,5.6-13.1s8.4-5.6,13.1-5.6v-95.1c0-1.9,0-4.7,0-10.3s0-9.3,0-11.2c0-1.9,0-5.6,0.9-10.3
		c0-4.7,0.9-8.4,1.9-11.2c0.9-2.8,1.9-5.6,3.7-9.3c1.9-3.7,3.7-6.5,6.5-9.3l58.8-58.8c3.7-3.7,8.4-6.5,14.9-9.3
		c6.5-2.8,12.1-3.7,17.7-3.7h47.6V65.3c0-5.6,1.9-9.3,5.6-13.1c3.7-3.7,8.4-5.6,13.1-5.6h304c5.6,0,9.3,1.9,13.1,5.6
		S512,60.6,512,65.3z"/>
</g>
</svg>
